<?xml version="1.0" encoding="UTF-8"?>
<svg width="17px" height="21px" viewBox="0 0 17 21" version="1.1" xmlns="http://www.w3.org/2000/svg" xmlns:xlink="http://www.w3.org/1999/xlink">
    <!-- Generator: Sketch 52.1 (67048) - http://www.bohemiancoding.com/sketch -->
    <title>bell</title>
    <desc>Created with Sketch.</desc>
    <defs>
        <path d="M8.50122053,21 C9.59029844,21 10.4714615,20.1306977 10.4714615,19.0562791 L6.5309796,19.0562791 C6.5309796,20.1306977 7.41214263,21 8.50122053,21 Z M15.4317163,15.1395349 L15.4317163,9.27906977 C15.4317163,6.00697674 13.0951491,3.27209302 9.98632677,2.60790698 L9.98632677,1.46511628 C9.98632677,0.654418605 9.32297932,0 8.50122053,0 C7.67946175,0 7.0161143,0.654418605 7.0161143,1.46511628 L7.0161143,2.60790698 C3.90729192,3.27209302 1.57072477,6.00697674 1.57072477,9.27906977 L1.57072477,15.1395349 L0.293533413,16.3995349 C-0.330211205,17.0148837 0.105419957,18.0697674 0.986582989,18.0697674 L16.0059574,18.0697674 C16.8871204,18.0697674 17.3326523,17.0148837 16.7089077,16.3995349 L15.4317163,15.1395349 Z M11.471433,11.2423256 L9.49129136,11.2423256 L9.49129136,13.195814 C9.49129136,13.7330233 9.04575949,14.1725581 8.50122053,14.1725581 C7.95668158,14.1725581 7.51114971,13.7330233 7.51114971,13.195814 L7.51114971,11.2423256 L5.53100806,11.2423256 C4.98646911,11.2423256 4.54093724,10.8027907 4.54093724,10.2655814 L4.54093724,10.255814 C4.54093724,9.71860465 4.98646911,9.27906977 5.53100806,9.27906977 L7.51114971,9.27906977 L7.51114971,7.3255814 C7.51114971,6.78837209 7.95668158,6.34883721 8.50122053,6.34883721 C9.04575949,6.34883721 9.49129136,6.78837209 9.49129136,7.3255814 L9.49129136,9.27906977 L11.471433,9.27906977 C12.015972,9.27906977 12.4615038,9.71860465 12.4615038,10.255814 L12.4615038,10.2655814 C12.4615038,10.8027907 12.015972,11.2423256 11.471433,11.2423256 Z" id="path-1"></path>
    </defs>
    <g id="bell" stroke="none" stroke-width="1" fill="none" fill-rule="evenodd">
        <mask id="mask-2" fill="white">
            <use xlink:href="#path-1"></use>
        </mask>
        <use id="icon/alert/add_24px" fill="#000000" fill-rule="nonzero" xlink:href="#path-1"></use>
    </g>
</svg>