<?xml version="1.0" encoding="UTF-8"?>
<svg width="21px" height="21px" viewBox="0 0 21 21" version="1.1" xmlns="http://www.w3.org/2000/svg" xmlns:xlink="http://www.w3.org/1999/xlink">
    <!-- Generator: Sketch 52.1 (67048) - http://www.bohemiancoding.com/sketch -->
    <title>notification</title>
    <desc>Created with Sketch.</desc>
    <defs>
        <path d="M10.5852444,5.75 C11.1352444,5.75 11.5852444,6.2 11.5852444,6.75 L11.5852444,10.75 C11.5852444,11.3 11.1352444,11.75 10.5852444,11.75 C10.0352444,11.75 9.58524441,11.3 9.58524441,10.75 L9.58524441,6.75 C9.58524441,6.2 10.0352444,5.75 10.5852444,5.75 Z M10.5752444,0.75 C5.05524441,0.75 0.585244414,5.23 0.585244414,10.75 C0.585244414,16.27 5.05524441,20.75 10.5752444,20.75 C16.1052444,20.75 20.5852444,16.27 20.5852444,10.75 C20.5852444,5.23 16.1052444,0.75 10.5752444,0.75 Z M10.5852444,18.75 C6.16524441,18.75 2.58524441,15.17 2.58524441,10.75 C2.58524441,6.33 6.16524441,2.75 10.5852444,2.75 C15.0052444,2.75 18.5852444,6.33 18.5852444,10.75 C18.5852444,15.17 15.0052444,18.75 10.5852444,18.75 Z M11.5852444,15.75 L9.58524441,15.75 L9.58524441,13.75 L11.5852444,13.75 L11.5852444,15.75 Z" id="path-1"></path>
    </defs>
    <g id="notification" stroke="none" stroke-width="1" fill="none" fill-rule="evenodd">
        <mask id="mask-2" fill="white">
            <use xlink:href="#path-1"></use>
        </mask>
        <use id="icon/alert/error_outline_24px" fill="#000000" fill-rule="nonzero" xlink:href="#path-1"></use>
    </g>
</svg>