<svg width="22" height="22" xmlns="http://www.w3.org/2000/svg" xmlns:xlink="http://www.w3.org/1999/xlink"><defs><path d="M12.06 11l2.47 2.47a.75.75 0 0 1-1.06 1.06L11 12.06l-2.47 2.47a.75.75 0 0 1-1.06-1.06L9.94 11 7.47 8.53a.75.75 0 0 1 1.06-1.06L11 9.94l2.47-2.47a.75.75 0 0 1 1.06 1.06L12.06 11zM11 21.75C5.063 21.75.25 16.937.25 11S5.063.25 11 .25 21.75 5.063 21.75 11 16.937 21.75 11 21.75zm0-1.5a9.25 9.25 0 1 0 0-18.5 9.25 9.25 0 0 0 0 18.5z" id="a"/></defs><g fill="none" fill-rule="evenodd"><mask id="b" fill="#fff"><use xlink:href="#a"/></mask><g mask="url(#b)"><path fill="#A9A9A9" d="M-1-1h24v24H-1z"/></g></g></svg>